<svg width="186" height="60" viewBox="0 0 186 60" fill="none" xmlns="http://www.w3.org/2000/svg">
<path d="M176.542 0H9.45763C4.23432 0 0 4.24151 0 9.47368V50.5263C0 55.7585 4.23432 60 9.45763 60H176.542C181.766 60 186 55.7585 186 50.5263V9.47368C186 4.24151 181.766 0 176.542 0Z" fill="black"/>
<path d="M37.4652 30.4755C37.4997 27.7968 38.9016 25.3226 41.1798 23.9196C39.736 21.8542 37.4045 20.5916 34.8886 20.5127C32.2417 20.2344 29.6756 22.0993 28.3268 22.0993C26.9518 22.0993 24.8751 20.5404 22.6388 20.5864C19.6964 20.6817 17.0198 22.3168 15.5883 24.8936C12.5398 30.1806 14.8137 37.9507 17.7339 42.2243C19.1949 44.3169 20.9025 46.6545 23.1368 46.5716C25.3231 46.4807 26.1397 45.175 28.7789 45.175C31.3935 45.175 32.1596 46.5716 34.4393 46.5189C36.7853 46.4807 38.2635 44.4169 39.6733 42.3044C40.723 40.8133 41.5308 39.1654 42.0667 37.4215C39.2803 36.241 37.4685 33.506 37.4652 30.4755Z" fill="white"/>
<path d="M33.1565 17.7024C34.4357 16.1642 35.0659 14.1871 34.9133 12.1909C32.959 12.3965 31.1538 13.3321 29.8573 14.8114C28.5771 16.2708 27.9285 18.1801 28.0545 20.1188C30.035 20.1392 31.9155 19.2486 33.1565 17.7024Z" fill="white"/>
<path d="M65.1045 41.2743H57.6434L55.8516 46.574H52.6914L59.7585 26.9666H63.0418L70.1089 46.574H66.8948L65.1045 41.2743ZM58.4162 38.8288H64.3303L61.4148 30.2278H61.3333L58.4162 38.8288Z" fill="white"/>
<path d="M85.3726 39.4275C85.3726 43.8698 82.999 46.724 79.417 46.724C77.5655 46.821 75.8214 45.8495 74.9268 44.2229H74.859V51.3035H71.9296V32.2791H74.7651V34.6567H74.819C75.7534 33.0403 77.4993 32.0693 79.3631 32.1295C82.9851 32.1295 85.3726 34.9975 85.3726 39.4275ZM82.3617 39.4275C82.3617 36.5333 80.8685 34.6305 78.5903 34.6305C76.3522 34.6305 74.8467 36.5734 74.8467 39.4275C74.8467 42.3078 76.3522 44.2368 78.5903 44.2368C80.8686 44.2368 82.3617 42.3479 82.3617 39.4275Z" fill="white"/>
<path d="M101.076 39.4276C101.076 43.8699 98.7021 46.7241 95.1201 46.7241C93.2686 46.8211 91.5246 45.8497 90.6299 44.223H90.5621V51.3036H87.6328V32.2792H90.4682V34.6568H90.5221C91.4565 33.0404 93.2024 32.0694 95.0662 32.1296C98.6883 32.1296 101.076 34.9976 101.076 39.4276ZM98.0648 39.4276C98.0648 36.5334 96.5717 34.6306 94.2935 34.6306C92.0553 34.6306 90.5498 36.5735 90.5498 39.4276C90.5498 42.308 92.0553 44.2369 94.2935 44.2369C96.5717 44.2369 98.0648 42.348 98.0648 39.4276Z" fill="white"/>
<path d="M111.463 41.1113C111.681 43.0557 113.566 44.3324 116.143 44.3324C118.612 44.3324 120.389 43.0557 120.389 41.3025C120.389 39.7806 119.317 38.8693 116.78 38.2448L114.244 37.6326C110.649 36.763 108.981 35.0792 108.981 32.3469C108.981 28.9638 111.924 26.6401 116.103 26.6401C120.239 26.6401 123.075 28.9638 123.17 32.3469H120.213C120.036 30.3901 118.421 29.209 116.061 29.209C113.702 29.209 112.087 30.404 112.087 32.1433C112.087 33.5295 113.118 34.3452 115.641 34.9697L117.798 35.5001C121.814 36.4515 123.483 38.0675 123.483 40.9354C123.483 44.6037 120.566 46.9012 115.926 46.9012C111.585 46.9012 108.654 44.6577 108.465 41.1112L111.463 41.1113Z" fill="white"/>
<path d="M129.797 28.896V32.279H132.511V34.6027H129.797V42.4836C129.797 43.7079 130.341 44.2784 131.534 44.2784C131.856 44.2728 132.178 44.2501 132.497 44.2105V46.5203C131.961 46.6207 131.416 46.6662 130.87 46.656C127.981 46.656 126.854 45.569 126.854 42.7965V34.6027H124.779V32.279H126.854V28.896H129.797Z" fill="white"/>
<path d="M134.09 39.4282C134.09 34.9304 136.734 32.104 140.858 32.104C144.996 32.104 147.628 34.9303 147.628 39.4282C147.628 43.9384 145.01 46.7524 140.858 46.7524C136.708 46.7524 134.09 43.9384 134.09 39.4282ZM144.643 39.4282C144.643 36.3428 143.232 34.5218 140.858 34.5218C138.485 34.5218 137.075 36.3567 137.075 39.4282C137.075 42.526 138.485 44.3331 140.858 44.3331C143.232 44.3331 144.643 42.526 144.643 39.4282Z" fill="white"/>
<path d="M150.043 32.2791H152.837V34.7122H152.905C153.294 33.1459 154.727 32.0679 156.337 32.1295C156.675 32.1283 157.012 32.165 157.341 32.2389V34.9836C156.915 34.8532 156.47 34.7933 156.025 34.8063C155.164 34.7713 154.33 35.1151 153.743 35.7474C153.156 36.3797 152.875 37.2374 152.972 38.0952V46.5744H150.043V32.2791Z" fill="white"/>
<path d="M170.84 42.3749C170.446 44.97 167.923 46.751 164.695 46.751C160.544 46.751 157.967 43.9647 157.967 39.4946C157.967 35.0106 160.557 32.1025 164.572 32.1025C168.52 32.1025 171.003 34.8194 171.003 39.1538V40.1592H160.924V40.3365C160.83 41.4008 161.197 42.4542 161.931 43.2289C162.666 44.0037 163.697 44.4249 164.763 44.3856C166.184 44.519 167.525 43.7014 168.059 42.3749L170.84 42.3749ZM160.938 38.1084H168.072C168.126 37.1521 167.778 36.2169 167.114 35.5282C166.449 34.8395 165.528 34.4596 164.572 34.4802C163.609 34.4745 162.683 34.8545 162 35.5358C161.318 36.2171 160.935 37.1433 160.938 38.1084Z" fill="white"/>
<path d="M58.708 21.6523C56.1372 21.6523 54.5122 19.8369 54.5122 16.917C54.5122 14.0161 56.1499 12.188 58.708 12.188C60.7837 12.188 62.3516 13.4639 62.5928 15.3745H61.1836C60.9297 14.2002 59.9521 13.4321 58.708 13.4321C57.0449 13.4321 55.9658 14.7969 55.9658 16.917C55.9658 19.0562 57.0322 20.4082 58.7144 20.4082C59.9902 20.4082 60.8979 19.7544 61.1836 18.6499H62.5991C62.25 20.5415 60.8154 21.6523 58.708 21.6523ZM66.6934 21.5825C64.7002 21.5825 63.4307 20.2241 63.4307 18.0532C63.4307 15.8887 64.7065 14.5176 66.6934 14.5176C68.6802 14.5176 69.9497 15.8823 69.9497 18.0532C69.9497 20.2241 68.6865 21.5825 66.6934 21.5825ZM66.6934 20.4399C67.8613 20.4399 68.5532 19.5576 68.5532 18.0532C68.5532 16.5488 67.8613 15.6602 66.6934 15.6602C65.5254 15.6602 64.8271 16.5552 64.8271 18.0532C64.8271 19.5576 65.5254 20.4399 66.6934 20.4399ZM71.0542 21.5V14.6064H72.3682V15.7744H72.3936C72.7109 15 73.4536 14.5303 74.355 14.5303C75.3135 14.5303 76.0054 15.0127 76.2847 15.8696H76.3164C76.6782 15.0381 77.4907 14.5303 78.4746 14.5303C79.833 14.5303 80.7217 15.4253 80.7217 16.8027V21.5H79.3506V17.1328C79.3506 16.2314 78.8618 15.7109 78.0049 15.7109C77.1606 15.7109 76.564 16.3394 76.564 17.2217V21.5H75.2119V17.0186C75.2119 16.2188 74.6978 15.7109 73.8916 15.7109C73.041 15.7109 72.4316 16.3711 72.4316 17.2725V21.5H71.0542ZM82.1499 21.5V14.6064H83.5273V21.5H82.1499ZM82.8418 13.6226C82.3975 13.6226 82.0356 13.2671 82.0356 12.8291C82.0356 12.3784 82.3975 12.0356 82.8418 12.0356C83.2861 12.0356 83.6479 12.3784 83.6479 12.8291C83.6479 13.2671 83.2861 13.6226 82.8418 13.6226ZM84.9937 21.5V14.6064H86.3076V15.7681H86.333C86.752 14.9556 87.5073 14.5303 88.5737 14.5303C90.0972 14.5303 91.0303 15.4951 91.0303 17.082V21.5H89.6528V17.3423C89.6528 16.2949 89.1069 15.7109 88.0977 15.7109C87.0566 15.7109 86.3711 16.4346 86.3711 17.52V21.5H84.9937ZM95.334 20.3384C96.4512 20.3384 97.1938 19.4243 97.1938 18.0342C97.1938 16.6377 96.4512 15.7046 95.334 15.7046C94.2231 15.7046 93.5059 16.6187 93.5059 18.0342C93.5059 19.4434 94.2231 20.3384 95.334 20.3384ZM95.3403 23.9819C93.6836 23.9819 92.5029 23.2139 92.3696 22.0332H93.7598C93.9121 22.5664 94.5532 22.9028 95.3975 22.9028C96.4893 22.9028 97.1938 22.3315 97.1938 21.4302V20.2939H97.1621C96.7622 21.0366 95.9497 21.481 94.9722 21.481C93.2519 21.481 92.0967 20.1289 92.0967 18.0278C92.0967 15.9014 93.2393 14.5366 95.0039 14.5366C95.9814 14.5366 96.7812 14.9873 97.2065 15.749H97.2319V14.6064H98.5649V21.3223C98.5649 22.9663 97.3271 23.9819 95.3403 23.9819ZM102.704 18.9482H104.106C104.208 19.856 105.09 20.4526 106.296 20.4526C107.452 20.4526 108.283 19.856 108.283 19.0371C108.283 18.3262 107.782 17.9009 106.595 17.6089L105.408 17.3232C103.726 16.917 102.945 16.1299 102.945 14.854C102.945 13.2734 104.322 12.188 106.277 12.188C108.213 12.188 109.54 13.2734 109.584 14.854H108.201C108.118 13.9399 107.363 13.3877 106.258 13.3877C105.154 13.3877 104.398 13.9463 104.398 14.7588C104.398 15.4063 104.881 15.7871 106.062 16.0791L107.071 16.3267C108.95 16.771 109.73 17.5264 109.73 18.8657C109.73 20.5796 108.366 21.6523 106.195 21.6523C104.164 21.6523 102.792 20.605 102.704 18.9482ZM113.818 21.5825C111.825 21.5825 110.556 20.2241 110.556 18.0532C110.556 15.8887 111.832 14.5176 113.818 14.5176C115.805 14.5176 117.075 15.8823 117.075 18.0532C117.075 20.2241 115.812 21.5825 113.818 21.5825ZM113.818 20.4399C114.986 20.4399 115.678 19.5576 115.678 18.0532C115.678 16.5488 114.986 15.6602 113.818 15.6602C112.65 15.6602 111.952 16.5552 111.952 18.0532C111.952 19.5576 112.65 20.4399 113.818 20.4399ZM121.131 21.5825C119.138 21.5825 117.868 20.2241 117.868 18.0532C117.868 15.8887 119.144 14.5176 121.131 14.5176C123.118 14.5176 124.387 15.8823 124.387 18.0532C124.387 20.2241 123.124 21.5825 121.131 21.5825ZM121.131 20.4399C122.299 20.4399 122.991 19.5576 122.991 18.0532C122.991 16.5488 122.299 15.6602 121.131 15.6602C119.963 15.6602 119.265 16.5552 119.265 18.0532C119.265 19.5576 119.963 20.4399 121.131 20.4399ZM125.492 21.5V14.6064H126.806V15.7681H126.831C127.25 14.9556 128.005 14.5303 129.072 14.5303C130.595 14.5303 131.528 15.4951 131.528 17.082V21.5H130.151V17.3423C130.151 16.2949 129.605 15.7109 128.596 15.7109C127.555 15.7109 126.869 16.4346 126.869 17.52V21.5H125.492Z" fill="white"/>
</svg>
