<svg width="186" height="60" viewBox="0 0 186 60" fill="none" xmlns="http://www.w3.org/2000/svg">
<path d="M176.542 0H9.45763C4.23432 0 0 4.24151 0 9.47368V50.5263C0 55.7585 4.23432 60 9.45763 60H176.542C181.766 60 186 55.7585 186 50.5263V9.47368C186 4.24151 181.766 0 176.542 0Z" fill="black"/>
<path d="M37.4652 30.4755C37.4997 27.7968 38.9016 25.3226 41.1798 23.9196C39.736 21.8542 37.4045 20.5916 34.8886 20.5127C32.2417 20.2344 29.6756 22.0993 28.3268 22.0993C26.9518 22.0993 24.8751 20.5404 22.6388 20.5864C19.6964 20.6817 17.0198 22.3168 15.5883 24.8936C12.5398 30.1806 14.8137 37.9507 17.7339 42.2243C19.1949 44.3169 20.9025 46.6545 23.1368 46.5716C25.3231 46.4807 26.1397 45.175 28.7789 45.175C31.3935 45.175 32.1596 46.5716 34.4393 46.5189C36.7853 46.4807 38.2635 44.4169 39.6733 42.3044C40.723 40.8133 41.5308 39.1654 42.0667 37.4215C39.2803 36.241 37.4685 33.506 37.4652 30.4755Z" fill="white"/>
<path d="M33.1565 17.7024C34.4357 16.1642 35.0659 14.1871 34.9133 12.1909C32.959 12.3965 31.1538 13.3321 29.8573 14.8114C28.5771 16.2708 27.9285 18.1801 28.0545 20.1188C30.035 20.1392 31.9155 19.2486 33.1565 17.7024Z" fill="white"/>
<path d="M65.1045 41.2743H57.6434L55.8516 46.574H52.6914L59.7585 26.9666H63.0418L70.1089 46.574H66.8948L65.1045 41.2743ZM58.4162 38.8288H64.3303L61.4148 30.2278H61.3333L58.4162 38.8288Z" fill="white"/>
<path d="M85.3726 39.4275C85.3726 43.8698 82.999 46.724 79.417 46.724C77.5655 46.821 75.8214 45.8496 74.9268 44.2229H74.859V51.3035H71.9296V32.2791H74.7651V34.6567H74.819C75.7534 33.0403 77.4993 32.0693 79.3631 32.1295C82.9851 32.1295 85.3726 34.9975 85.3726 39.4275ZM82.3617 39.4275C82.3617 36.5333 80.8685 34.6305 78.5903 34.6305C76.3522 34.6305 74.8467 36.5734 74.8467 39.4275C74.8467 42.3078 76.3522 44.2368 78.5903 44.2368C80.8686 44.2368 82.3617 42.3479 82.3617 39.4275Z" fill="white"/>
<path d="M101.076 39.4276C101.076 43.8699 98.7021 46.7241 95.1201 46.7241C93.2686 46.8211 91.5246 45.8497 90.6299 44.223H90.5621V51.3036H87.6328V32.2792H90.4682V34.6568H90.5221C91.4565 33.0404 93.2024 32.0694 95.0662 32.1296C98.6883 32.1296 101.076 34.9976 101.076 39.4276ZM98.0648 39.4276C98.0648 36.5334 96.5717 34.6306 94.2935 34.6306C92.0553 34.6306 90.5498 36.5735 90.5498 39.4276C90.5498 42.308 92.0553 44.2369 94.2935 44.2369C96.5717 44.2369 98.0648 42.348 98.0648 39.4276Z" fill="white"/>
<path d="M111.463 41.1113C111.681 43.0557 113.566 44.3324 116.143 44.3324C118.612 44.3324 120.389 43.0557 120.389 41.3025C120.389 39.7806 119.317 38.8693 116.78 38.2448L114.244 37.6326C110.649 36.763 108.981 35.0792 108.981 32.3469C108.981 28.9638 111.924 26.6401 116.103 26.6401C120.239 26.6401 123.075 28.9638 123.17 32.3469H120.213C120.036 30.3901 118.421 29.209 116.061 29.209C113.702 29.209 112.087 30.404 112.087 32.1433C112.087 33.5295 113.118 34.3452 115.641 34.9697L117.798 35.5001C121.814 36.4515 123.483 38.0675 123.483 40.9354C123.483 44.6037 120.566 46.9012 115.926 46.9012C111.585 46.9012 108.654 44.6577 108.465 41.1112L111.463 41.1113Z" fill="white"/>
<path d="M129.797 28.896V32.279H132.511V34.6027H129.797V42.4836C129.797 43.7079 130.341 44.2784 131.534 44.2784C131.856 44.2728 132.178 44.2501 132.497 44.2105V46.5203C131.961 46.6207 131.416 46.6662 130.87 46.656C127.981 46.656 126.854 45.569 126.854 42.7965V34.6027H124.779V32.279H126.854V28.896H129.797Z" fill="white"/>
<path d="M134.09 39.4282C134.09 34.9304 136.734 32.104 140.858 32.104C144.996 32.104 147.628 34.9303 147.628 39.4282C147.628 43.9384 145.01 46.7524 140.858 46.7524C136.708 46.7524 134.09 43.9384 134.09 39.4282ZM144.643 39.4282C144.643 36.3428 143.232 34.5218 140.858 34.5218C138.485 34.5218 137.075 36.3567 137.075 39.4282C137.075 42.526 138.485 44.3331 140.858 44.3331C143.232 44.3331 144.643 42.526 144.643 39.4282Z" fill="white"/>
<path d="M150.043 32.2791H152.837V34.7122H152.905C153.294 33.1459 154.727 32.0679 156.337 32.1295C156.675 32.1283 157.012 32.165 157.341 32.2389V34.9836C156.915 34.8532 156.47 34.7933 156.025 34.8063C155.164 34.7713 154.33 35.1151 153.743 35.7474C153.156 36.3797 152.875 37.2374 152.972 38.0952V46.5744H150.043V32.2791Z" fill="white"/>
<path d="M170.84 42.3749C170.446 44.97 167.923 46.751 164.695 46.751C160.544 46.751 157.967 43.9647 157.967 39.4946C157.967 35.0106 160.557 32.1025 164.572 32.1025C168.52 32.1025 171.003 34.8194 171.003 39.1538V40.1592H160.924V40.3365C160.83 41.4008 161.197 42.4542 161.931 43.2289C162.666 44.0037 163.697 44.4249 164.763 44.3856C166.184 44.519 167.525 43.7014 168.059 42.3749L170.84 42.3749ZM160.938 38.1084H168.072C168.126 37.1521 167.778 36.2169 167.114 35.5282C166.449 34.8395 165.528 34.4596 164.572 34.4802C163.609 34.4745 162.683 34.8545 162 35.5358C161.318 36.2171 160.935 37.1433 160.938 38.1084Z" fill="white"/>
<path d="M54.8423 12.3403H58.124C60.8535 12.3403 62.4595 14.0161 62.4595 16.9043C62.4595 19.7988 60.8535 21.5 58.124 21.5H54.8423V12.3403ZM56.2642 13.5654V20.2686H57.9907C59.9331 20.2686 61.0122 19.0815 61.0122 16.917C61.0122 14.7588 59.9331 13.5654 57.9907 13.5654H56.2642ZM66.6299 21.5825C64.6367 21.5825 63.3672 20.2241 63.3672 18.0532C63.3672 15.8887 64.6431 14.5176 66.6299 14.5176C68.6167 14.5176 69.8862 15.8823 69.8862 18.0532C69.8862 20.2241 68.623 21.5825 66.6299 21.5825ZM66.6299 20.4399C67.7979 20.4399 68.4897 19.5576 68.4897 18.0532C68.4897 16.5488 67.7979 15.6602 66.6299 15.6602C65.4619 15.6602 64.7637 16.5552 64.7637 18.0532C64.7637 19.5576 65.4619 20.4399 66.6299 20.4399ZM80.0171 14.6064L78.1191 21.5H76.6973L75.231 16.3076H75.1992L73.7456 21.5H72.3301L70.4258 14.6064H71.7969L73.0791 20.0654H73.1045L74.5645 14.6064H75.8848L77.3511 20.0654H77.3765L78.6587 14.6064H80.0171ZM80.8931 21.5V14.6064H82.207V15.7681H82.2324C82.6514 14.9556 83.4067 14.5303 84.4731 14.5303C85.9966 14.5303 86.9297 15.4951 86.9297 17.082V21.5H85.5522V17.3423C85.5522 16.2949 85.0063 15.7109 83.9971 15.7109C82.9561 15.7109 82.2705 16.4346 82.2705 17.52V21.5H80.8931ZM88.3643 21.5V11.9277H89.7417V21.5H88.3643ZM94.166 21.5825C92.1728 21.5825 90.9033 20.2241 90.9033 18.0532C90.9033 15.8887 92.1792 14.5176 94.166 14.5176C96.1528 14.5176 97.4224 15.8823 97.4224 18.0532C97.4224 20.2241 96.1592 21.5825 94.166 21.5825ZM94.166 20.4399C95.334 20.4399 96.0259 19.5576 96.0259 18.0532C96.0259 16.5488 95.334 15.6602 94.166 15.6602C92.998 15.6602 92.2998 16.5552 92.2998 18.0532C92.2998 19.5576 92.998 20.4399 94.166 20.4399ZM100.92 20.4717C101.942 20.4717 102.716 19.8179 102.716 18.9102V18.3706L101.041 18.4849C100.101 18.542 99.6123 18.8911 99.6123 19.5005C99.6123 20.0908 100.126 20.4717 100.92 20.4717ZM100.552 21.5698C99.1743 21.5698 98.2222 20.7573 98.2222 19.5259C98.2222 18.3198 99.1553 17.6216 100.856 17.5137L102.716 17.4058V16.8726C102.716 16.0854 102.189 15.6538 101.269 15.6538C100.52 15.6538 99.9741 16.041 99.8535 16.6377H98.5649C98.603 15.4189 99.7583 14.5176 101.307 14.5176C102.989 14.5176 104.075 15.4063 104.075 16.771V21.5H102.761V20.3511H102.729C102.348 21.1001 101.491 21.5698 100.552 21.5698ZM108.055 21.5698C106.328 21.5698 105.147 20.1797 105.147 18.0469C105.147 15.9268 106.328 14.5366 108.042 14.5366C109.032 14.5366 109.819 14.9873 110.213 15.749H110.245V11.9277H111.616V21.5H110.283V20.332H110.257C109.851 21.1128 109.064 21.5698 108.055 21.5698ZM108.404 15.7046C107.293 15.7046 106.557 16.6313 106.557 18.0532C106.557 19.4814 107.287 20.4019 108.404 20.4019C109.508 20.4019 110.251 19.4624 110.251 18.0532C110.251 16.6504 109.508 15.7046 108.404 15.7046ZM119.023 21.5825C117.03 21.5825 115.761 20.2241 115.761 18.0532C115.761 15.8887 117.037 14.5176 119.023 14.5176C121.01 14.5176 122.28 15.8823 122.28 18.0532C122.28 20.2241 121.017 21.5825 119.023 21.5825ZM119.023 20.4399C120.191 20.4399 120.883 19.5576 120.883 18.0532C120.883 16.5488 120.191 15.6602 119.023 15.6602C117.855 15.6602 117.157 16.5552 117.157 18.0532C117.157 19.5576 117.855 20.4399 119.023 20.4399ZM123.384 21.5V14.6064H124.698V15.7681H124.724C125.143 14.9556 125.898 14.5303 126.964 14.5303C128.488 14.5303 129.421 15.4951 129.421 17.082V21.5H128.043V17.3423C128.043 16.2949 127.498 15.7109 126.488 15.7109C125.447 15.7109 124.762 16.4346 124.762 17.52V21.5H123.384ZM134.207 13.0576H135.578V14.6064H136.898V15.6919H135.578V19.5449C135.578 20.1416 135.845 20.4209 136.422 20.4209C136.568 20.4209 136.803 20.4019 136.892 20.3892V21.4746C136.74 21.5127 136.416 21.5444 136.118 21.5444C134.74 21.5444 134.207 21.0176 134.207 19.6846V15.6919H133.255V14.6064H134.207V13.0576ZM138.117 21.5V11.9277H139.482V15.7681H139.514C139.926 14.9556 140.701 14.5303 141.754 14.5303C143.271 14.5303 144.268 15.5396 144.268 17.0947V21.5H142.897V17.3613C142.897 16.333 142.288 15.7109 141.278 15.7109C140.212 15.7109 139.495 16.4473 139.495 17.5518V21.5H138.117ZM148.521 15.6411C147.531 15.6411 146.813 16.3647 146.737 17.4248H150.235C150.203 16.3521 149.524 15.6411 148.521 15.6411ZM150.229 19.4814H151.542C151.346 20.7192 150.133 21.5825 148.584 21.5825C146.585 21.5825 145.341 20.2368 145.341 18.0786C145.341 15.9204 146.598 14.5176 148.527 14.5176C150.419 14.5176 151.612 15.8315 151.612 17.9199V18.4023H146.731V18.4849C146.731 19.6782 147.48 20.4653 148.61 20.4653C149.41 20.4653 150.038 20.0845 150.229 19.4814Z" fill="white"/>
</svg>
