<svg preserveAspectRatio="none" width="100%" height="100%" overflow="visible" style="display: block;" viewBox="0 0 24 24" fill="none" xmlns="http://www.w3.org/2000/svg">
<path id="Subtract" d="M24 24H0V0H24V24ZM3.55176 20.4561H7.11621V9H3.55176V20.4561ZM16.1807 8.71582C14.4486 8.71582 13.2864 9.6649 12.8115 10.5654H12.7627V9H9.34961V20.4561H12.9062V14.79C12.9062 13.2956 13.1887 11.8469 15.041 11.8467C16.8682 11.8467 16.8916 13.5563 16.8916 14.8848V20.4561H20.4512V14.1729C20.4512 11.0875 19.7855 8.71594 16.1807 8.71582ZM5.33496 3.30469C4.19167 3.30477 3.26976 4.22977 3.26953 5.36914C3.26953 6.50899 4.19152 7.43448 5.33496 7.43457C6.47398 7.43457 7.39844 6.50905 7.39844 5.36914C7.3982 4.22971 6.47383 3.30469 5.33496 3.30469Z" fill="var(--fill-0, black)"/>
</svg>
